<svg width="129" height="124" viewBox="0 0 129 124" fill="none" xmlns="http://www.w3.org/2000/svg">
<path d="M64.5 0C100.122 0 129 27.7583 129 62C129 96.2417 100.122 124 64.5 124C28.8776 124 0 96.2417 0 62C0 27.7583 28.8776 0 64.5 0ZM64.5 8C33.2959 8 8 32.1766 8 62C8 91.8234 33.2959 116 64.5 116C95.7041 116 121 91.8234 121 62C121 32.1766 95.7041 8 64.5 8ZM64 57C68.4649 57 72.8867 57.9699 77.0117 59.8545C81.1366 61.739 84.8849 64.5013 88.042 67.9834C91.1991 71.4656 93.7035 75.5998 95.4121 80.1494C97.1207 84.6991 98 89.5755 98 94.5H30C30 89.5755 30.8793 84.6991 32.5879 80.1494C34.2965 75.5998 36.8009 71.4656 39.958 67.9834C43.1151 64.5013 46.8634 61.739 50.9883 59.8545C55.1133 57.9699 59.5351 57 64 57ZM64 19C74.4934 19 83 27.2827 83 37.5C83 47.7173 74.4934 56 64 56C53.5066 56 45 47.7173 45 37.5C45 27.2827 53.5066 19 64 19Z" fill="#E0C5BA"/>
</svg>
