<svg width="10" height="9" viewBox="0 0 10 9" fill="none" xmlns="http://www.w3.org/2000/svg">
<path d="M3.89648 0C6.04852 0 7.79379 1.74449 7.79395 3.89648C7.79395 6.04861 6.04861 7.79395 3.89648 7.79395C1.74449 7.79379 0 6.04852 0 3.89648C0.000155121 1.74458 1.74458 0.000155122 3.89648 0ZM4.19629 1.19922C2.54099 1.19935 1.19935 2.54099 1.19922 4.19629C1.19922 5.85169 2.54091 7.19421 4.19629 7.19434C5.85177 7.19434 7.19434 5.85177 7.19434 4.19629C7.19421 2.54091 5.85169 1.19922 4.19629 1.19922Z" fill="#5C403F"/>
<path d="M6.16846 6.77827L7.17366 5.64321L9.09387 7.34374C9.40731 7.62132 9.43638 8.10044 9.1588 8.41387C8.88122 8.72731 8.4021 8.75638 8.08866 8.4788L6.16846 6.77827Z" fill="#5C403F"/>
</svg>
